<mxfile host="app.diagrams.net" agent="Mozilla/5.0 (Windows NT 10.0; Win64; x64) AppleWebKit/537.36 (KHTML, like Gecko) Chrome/131.0.0.0 Safari/537.36 Edg/131.0.0.0" version="26.0.2" pages="2">
  <diagram name="Page-1" id="g4Flw4CBZJ3Xt2yWA-hX">
    <mxGraphModel dx="2140" dy="667" grid="1" gridSize="10" guides="1" tooltips="1" connect="1" arrows="1" fold="1" page="1" pageScale="1" pageWidth="850" pageHeight="1100" math="0" shadow="0">
      <root>
        <mxCell id="0" />
        <mxCell id="1" parent="0" />
        <mxCell id="HQvSRIHjKG-E9iaPZH6v-157" value="Jadwal Kegiatan" style="whiteSpace=wrap;strokeWidth=2;" vertex="1" parent="1">
          <mxGeometry x="2110" y="2178" width="330" height="128" as="geometry" />
        </mxCell>
        <mxCell id="HQvSRIHjKG-E9iaPZH6v-158" value="" style="whiteSpace=wrap;strokeWidth=2;" vertex="1" parent="1">
          <mxGeometry x="-270" y="1474" width="2108" height="176" as="geometry" />
        </mxCell>
        <mxCell id="HQvSRIHjKG-E9iaPZH6v-159" value="Start: Perencanaan Kegiatan" style="rounded=1;arcSize=40;strokeWidth=2" vertex="1" parent="1">
          <mxGeometry x="976" y="650" width="230" height="78" as="geometry" />
        </mxCell>
        <mxCell id="HQvSRIHjKG-E9iaPZH6v-160" value="Diskusi dan Persetujuan Panitia" style="fillColor=none;strokeColor=none;" vertex="1" parent="1">
          <mxGeometry x="1116" y="778" width="260" height="78" as="geometry" />
        </mxCell>
        <mxCell id="HQvSRIHjKG-E9iaPZH6v-161" value="Penetapan Susunan Panitia" style="fillColor=none;strokeColor=none;" vertex="1" parent="1">
          <mxGeometry x="1274" y="906" width="253" height="54" as="geometry" />
        </mxCell>
        <mxCell id="HQvSRIHjKG-E9iaPZH6v-162" value="Perancangan Jadwal dan Cabang Olahraga" style="fillColor=none;strokeColor=none;" vertex="1" parent="1">
          <mxGeometry x="1558" y="1010" width="260" height="78" as="geometry" />
        </mxCell>
        <mxCell id="HQvSRIHjKG-E9iaPZH6v-163" value="Pengajuan Anggaran" style="fillColor=none;strokeColor=none;" vertex="1" parent="1">
          <mxGeometry x="1586" y="1138" width="205" height="54" as="geometry" />
        </mxCell>
        <mxCell id="HQvSRIHjKG-E9iaPZH6v-164" value="Konfirmasi Lokasi dan Peralatan" style="fillColor=none;strokeColor=none;" vertex="1" parent="1">
          <mxGeometry x="1690" y="1242" width="260" height="78" as="geometry" />
        </mxCell>
        <mxCell id="HQvSRIHjKG-E9iaPZH6v-165" value="Publikasi dan Promosi" style="fillColor=none;strokeColor=none;" vertex="1" parent="1">
          <mxGeometry x="1713" y="1370" width="215" height="54" as="geometry" />
        </mxCell>
        <mxCell id="HQvSRIHjKG-E9iaPZH6v-166" value="Registrasi Peserta" style="fillColor=none;strokeColor=none;" vertex="1" parent="1">
          <mxGeometry x="1873" y="1535" width="188" height="54" as="geometry" />
        </mxCell>
        <mxCell id="HQvSRIHjKG-E9iaPZH6v-167" value="Apakah Pendaftaran Selesai?" style="rhombus;strokeWidth=2;whiteSpace=wrap;" vertex="1" parent="1">
          <mxGeometry x="1828" y="1724" width="278" height="278" as="geometry" />
        </mxCell>
        <mxCell id="HQvSRIHjKG-E9iaPZH6v-168" value="Persiapan Final: Perlengkapan dan Konsumsi" style="fillColor=none;strokeColor=none;" vertex="1" parent="1">
          <mxGeometry x="1837" y="2075" width="260" height="78" as="geometry" />
        </mxCell>
        <mxCell id="HQvSRIHjKG-E9iaPZH6v-169" value="Pelaksanaan Kegiatan" style="fillColor=none;strokeColor=none;" vertex="1" parent="1">
          <mxGeometry x="1860" y="2240" width="216" height="54" as="geometry" />
        </mxCell>
        <mxCell id="HQvSRIHjKG-E9iaPZH6v-170" value="Closing Ceremony dan Penghargaan" style="fillColor=none;strokeColor=none;" vertex="1" parent="1">
          <mxGeometry x="1991" y="2381" width="260" height="78" as="geometry" />
        </mxCell>
        <mxCell id="HQvSRIHjKG-E9iaPZH6v-171" value="Evaluasi dan Laporan Kegiatan" style="fillColor=none;strokeColor=none;" vertex="1" parent="1">
          <mxGeometry x="1991" y="2509" width="260" height="78" as="geometry" />
        </mxCell>
        <mxCell id="HQvSRIHjKG-E9iaPZH6v-172" value="Penanggung Jawab: Ketua UKM PSDKU" style="fillColor=none;strokeColor=none;" vertex="1" parent="1">
          <mxGeometry x="-200" y="1511" width="260" height="102" as="geometry" />
        </mxCell>
        <mxCell id="HQvSRIHjKG-E9iaPZH6v-173" value="Ketua Panitia: Ketua Acara" style="fillColor=none;strokeColor=none;" vertex="1" parent="1">
          <mxGeometry x="165" y="1523" width="260" height="78" as="geometry" />
        </mxCell>
        <mxCell id="HQvSRIHjKG-E9iaPZH6v-174" value="Divisi Acara: Perwakilan Teknik Informatika, Akuntansi, Teknologi Hasil Pertanian" style="fillColor=none;strokeColor=none;" vertex="1" parent="1">
          <mxGeometry x="590" y="1500" width="260" height="126" as="geometry" />
        </mxCell>
        <mxCell id="HQvSRIHjKG-E9iaPZH6v-175" value="Divisi Perlengkapan dan Logistik" style="fillColor=none;strokeColor=none;" vertex="1" parent="1">
          <mxGeometry x="1015" y="1523" width="260" height="78" as="geometry" />
        </mxCell>
        <mxCell id="HQvSRIHjKG-E9iaPZH6v-176" value="Divisi Konsumsi" style="fillColor=none;strokeColor=none;" vertex="1" parent="1">
          <mxGeometry x="1325" y="1535" width="168" height="54" as="geometry" />
        </mxCell>
        <mxCell id="HQvSRIHjKG-E9iaPZH6v-177" value="Divisi Dokumentasi dan Publikasi" style="fillColor=none;strokeColor=none;" vertex="1" parent="1">
          <mxGeometry x="1543" y="1523" width="260" height="78" as="geometry" />
        </mxCell>
        <mxCell id="HQvSRIHjKG-E9iaPZH6v-178" value="Hari 1: Opening Ceremony, Bulu Tangkis, dan Futsal" style="fillColor=none;strokeColor=none;" vertex="1" parent="1">
          <mxGeometry x="2145" y="2228" width="260" height="78" as="geometry" />
        </mxCell>
        <mxCell id="HQvSRIHjKG-E9iaPZH6v-179" value="" style="curved=1;startArrow=none;endArrow=circle;endFill=0;exitX=0.91;exitY=1;entryX=0.5;entryY=0;rounded=0;" edge="1" parent="1" source="HQvSRIHjKG-E9iaPZH6v-159" target="HQvSRIHjKG-E9iaPZH6v-160">
          <mxGeometry relative="1" as="geometry">
            <Array as="points">
              <mxPoint x="1246" y="753" />
            </Array>
          </mxGeometry>
        </mxCell>
        <mxCell id="HQvSRIHjKG-E9iaPZH6v-180" value="" style="curved=1;startArrow=none;endArrow=circle;endFill=0;exitX=0.86;exitY=1;entryX=0.5;entryY=0;rounded=0;" edge="1" parent="1" source="HQvSRIHjKG-E9iaPZH6v-160" target="HQvSRIHjKG-E9iaPZH6v-161">
          <mxGeometry relative="1" as="geometry">
            <Array as="points">
              <mxPoint x="1401" y="881" />
            </Array>
          </mxGeometry>
        </mxCell>
        <mxCell id="HQvSRIHjKG-E9iaPZH6v-181" value="" style="curved=1;startArrow=none;endArrow=circle;endFill=0;exitX=1;exitY=0.93;entryX=0.5;entryY=0;rounded=0;" edge="1" parent="1" source="HQvSRIHjKG-E9iaPZH6v-161" target="HQvSRIHjKG-E9iaPZH6v-162">
          <mxGeometry relative="1" as="geometry">
            <Array as="points">
              <mxPoint x="1688" y="985" />
            </Array>
          </mxGeometry>
        </mxCell>
        <mxCell id="HQvSRIHjKG-E9iaPZH6v-182" value="" style="curved=1;startArrow=none;endArrow=circle;endFill=0;exitX=0.5;exitY=1;entryX=0.5;entryY=0;rounded=0;" edge="1" parent="1" source="HQvSRIHjKG-E9iaPZH6v-162" target="HQvSRIHjKG-E9iaPZH6v-163">
          <mxGeometry relative="1" as="geometry">
            <Array as="points" />
          </mxGeometry>
        </mxCell>
        <mxCell id="HQvSRIHjKG-E9iaPZH6v-183" value="" style="curved=1;startArrow=none;endArrow=circle;endFill=0;exitX=0.83;exitY=1;entryX=0.5;entryY=0;rounded=0;" edge="1" parent="1" source="HQvSRIHjKG-E9iaPZH6v-163" target="HQvSRIHjKG-E9iaPZH6v-164">
          <mxGeometry relative="1" as="geometry">
            <Array as="points">
              <mxPoint x="1820" y="1217" />
            </Array>
          </mxGeometry>
        </mxCell>
        <mxCell id="HQvSRIHjKG-E9iaPZH6v-184" value="" style="curved=1;startArrow=none;endArrow=circle;endFill=0;exitX=0.5;exitY=1;entryX=0.5;entryY=0;rounded=0;" edge="1" parent="1" source="HQvSRIHjKG-E9iaPZH6v-164" target="HQvSRIHjKG-E9iaPZH6v-165">
          <mxGeometry relative="1" as="geometry">
            <Array as="points" />
          </mxGeometry>
        </mxCell>
        <mxCell id="HQvSRIHjKG-E9iaPZH6v-185" value="" style="curved=1;startArrow=none;endArrow=circle;endFill=0;exitX=0.85;exitY=1;entryX=0.5;entryY=0;rounded=0;" edge="1" parent="1" source="HQvSRIHjKG-E9iaPZH6v-165" target="HQvSRIHjKG-E9iaPZH6v-166">
          <mxGeometry relative="1" as="geometry">
            <Array as="points">
              <mxPoint x="1967" y="1449" />
            </Array>
          </mxGeometry>
        </mxCell>
        <mxCell id="HQvSRIHjKG-E9iaPZH6v-186" value="" style="curved=1;startArrow=none;endArrow=block;exitX=0.41;exitY=1;entryX=0.35;entryY=0;rounded=0;" edge="1" parent="1" source="HQvSRIHjKG-E9iaPZH6v-166" target="HQvSRIHjKG-E9iaPZH6v-167">
          <mxGeometry relative="1" as="geometry">
            <Array as="points">
              <mxPoint x="1913" y="1650" />
              <mxPoint x="1913" y="1687" />
            </Array>
          </mxGeometry>
        </mxCell>
        <mxCell id="HQvSRIHjKG-E9iaPZH6v-187" value="Ya" style="curved=1;startArrow=none;endArrow=circle;endFill=0;exitX=0.5;exitY=1;entryX=0.5;entryY=0;rounded=0;" edge="1" parent="1" source="HQvSRIHjKG-E9iaPZH6v-167" target="HQvSRIHjKG-E9iaPZH6v-168">
          <mxGeometry relative="1" as="geometry">
            <Array as="points" />
          </mxGeometry>
        </mxCell>
        <mxCell id="HQvSRIHjKG-E9iaPZH6v-188" value="Tidak" style="curved=1;startArrow=none;endArrow=block;exitX=0.88;exitY=0;entryX=0.72;entryY=1;rounded=0;" edge="1" parent="1" source="HQvSRIHjKG-E9iaPZH6v-167" target="HQvSRIHjKG-E9iaPZH6v-166">
          <mxGeometry relative="1" as="geometry">
            <Array as="points">
              <mxPoint x="2101" y="1687" />
              <mxPoint x="2101" y="1650" />
            </Array>
          </mxGeometry>
        </mxCell>
        <mxCell id="HQvSRIHjKG-E9iaPZH6v-189" value="" style="curved=1;startArrow=none;endArrow=circle;endFill=0;exitX=0.5;exitY=1;entryX=0.5;entryY=0.01;rounded=0;" edge="1" parent="1" source="HQvSRIHjKG-E9iaPZH6v-168" target="HQvSRIHjKG-E9iaPZH6v-169">
          <mxGeometry relative="1" as="geometry">
            <Array as="points" />
          </mxGeometry>
        </mxCell>
        <mxCell id="HQvSRIHjKG-E9iaPZH6v-190" value="" style="curved=1;startArrow=none;endArrow=circle;endFill=0;exitX=0.5;exitY=1.01;entryX=0.14;entryY=0;rounded=0;" edge="1" parent="1" source="HQvSRIHjKG-E9iaPZH6v-169" target="HQvSRIHjKG-E9iaPZH6v-170">
          <mxGeometry relative="1" as="geometry">
            <Array as="points">
              <mxPoint x="1967" y="2356" />
            </Array>
          </mxGeometry>
        </mxCell>
        <mxCell id="HQvSRIHjKG-E9iaPZH6v-191" value="" style="curved=1;startArrow=none;endArrow=circle;endFill=0;exitX=0.5;exitY=1;entryX=0.5;entryY=0;rounded=0;" edge="1" parent="1" source="HQvSRIHjKG-E9iaPZH6v-170" target="HQvSRIHjKG-E9iaPZH6v-171">
          <mxGeometry relative="1" as="geometry">
            <Array as="points" />
          </mxGeometry>
        </mxCell>
        <mxCell id="HQvSRIHjKG-E9iaPZH6v-192" value="" style="curved=1;startArrow=none;endArrow=circle;endFill=0;exitX=0;exitY=0.61;entryX=0.5;entryY=0;rounded=0;" edge="1" parent="1" source="HQvSRIHjKG-E9iaPZH6v-159" target="HQvSRIHjKG-E9iaPZH6v-172">
          <mxGeometry relative="1" as="geometry">
            <Array as="points">
              <mxPoint x="215" y="753" />
            </Array>
          </mxGeometry>
        </mxCell>
        <mxCell id="HQvSRIHjKG-E9iaPZH6v-193" value="" style="curved=1;startArrow=none;endArrow=circle;endFill=0;exitX=0;exitY=0.65;entryX=0.5;entryY=0;rounded=0;" edge="1" parent="1" source="HQvSRIHjKG-E9iaPZH6v-160" target="HQvSRIHjKG-E9iaPZH6v-173">
          <mxGeometry relative="1" as="geometry">
            <Array as="points">
              <mxPoint x="525" y="881" />
            </Array>
          </mxGeometry>
        </mxCell>
        <mxCell id="HQvSRIHjKG-E9iaPZH6v-194" value="" style="curved=1;startArrow=none;endArrow=circle;endFill=0;exitX=0;exitY=0.72;entryX=0.5;entryY=0;rounded=0;" edge="1" parent="1" source="HQvSRIHjKG-E9iaPZH6v-161" target="HQvSRIHjKG-E9iaPZH6v-174">
          <mxGeometry relative="1" as="geometry">
            <Array as="points">
              <mxPoint x="835" y="985" />
            </Array>
          </mxGeometry>
        </mxCell>
        <mxCell id="HQvSRIHjKG-E9iaPZH6v-195" value="" style="curved=1;startArrow=none;endArrow=circle;endFill=0;exitX=0;exitY=0.7;entryX=0.5;entryY=0;rounded=0;" edge="1" parent="1" source="HQvSRIHjKG-E9iaPZH6v-162" target="HQvSRIHjKG-E9iaPZH6v-175">
          <mxGeometry relative="1" as="geometry">
            <Array as="points">
              <mxPoint x="1145" y="1113" />
            </Array>
          </mxGeometry>
        </mxCell>
        <mxCell id="HQvSRIHjKG-E9iaPZH6v-196" value="" style="curved=1;startArrow=none;endArrow=circle;endFill=0;exitX=0;exitY=0.85;entryX=0.5;entryY=0;rounded=0;" edge="1" parent="1" source="HQvSRIHjKG-E9iaPZH6v-163" target="HQvSRIHjKG-E9iaPZH6v-176">
          <mxGeometry relative="1" as="geometry">
            <Array as="points">
              <mxPoint x="1409" y="1217" />
            </Array>
          </mxGeometry>
        </mxCell>
        <mxCell id="HQvSRIHjKG-E9iaPZH6v-197" value="" style="curved=1;startArrow=none;endArrow=circle;endFill=0;exitX=0.14;exitY=1;entryX=0.5;entryY=0;rounded=0;" edge="1" parent="1" source="HQvSRIHjKG-E9iaPZH6v-165" target="HQvSRIHjKG-E9iaPZH6v-177">
          <mxGeometry relative="1" as="geometry">
            <Array as="points">
              <mxPoint x="1673" y="1449" />
            </Array>
          </mxGeometry>
        </mxCell>
        <mxCell id="HQvSRIHjKG-E9iaPZH6v-198" value="" style="curved=1;startArrow=none;endArrow=circle;endFill=0;exitX=1;exitY=0.68;entryX=0.5;entryY=0;rounded=0;" edge="1" parent="1" source="HQvSRIHjKG-E9iaPZH6v-162" target="HQvSRIHjKG-E9iaPZH6v-178">
          <mxGeometry relative="1" as="geometry">
            <Array as="points">
              <mxPoint x="2275" y="1113" />
            </Array>
          </mxGeometry>
        </mxCell>
        <mxCell id="HQvSRIHjKG-E9iaPZH6v-199" value="" style="curved=1;startArrow=none;endArrow=block;exitX=0.5;exitY=1;entryX=0.86;entryY=0;rounded=0;" edge="1" parent="1" source="HQvSRIHjKG-E9iaPZH6v-178" target="HQvSRIHjKG-E9iaPZH6v-170">
          <mxGeometry relative="1" as="geometry">
            <Array as="points">
              <mxPoint x="2275" y="2356" />
            </Array>
          </mxGeometry>
        </mxCell>
      </root>
    </mxGraphModel>
  </diagram>
  <diagram id="vFOqX34UlQUqBM8s5nDU" name="Page-2">
    <mxGraphModel dx="1979" dy="584" grid="1" gridSize="10" guides="1" tooltips="1" connect="1" arrows="1" fold="1" page="1" pageScale="1" pageWidth="850" pageHeight="1100" math="0" shadow="0">
      <root>
        <mxCell id="0" />
        <mxCell id="1" parent="0" />
        <mxCell id="jz2752WbL8ky3ywwrXMl-1" value="Start: Persiapan Latihan" style="rounded=1;arcSize=40;strokeWidth=2" vertex="1" parent="1">
          <mxGeometry x="47" y="20" width="205" height="54" as="geometry" />
        </mxCell>
        <mxCell id="jz2752WbL8ky3ywwrXMl-2" value="Open Recruitment Peserta Latihan" style="fillColor=none;strokeColor=none;" vertex="1" parent="1">
          <mxGeometry x="20" y="124" width="260" height="78" as="geometry" />
        </mxCell>
        <mxCell id="jz2752WbL8ky3ywwrXMl-3" value="Menyusun Proposal, ToR, dan RAB" style="fillColor=none;strokeColor=none;" vertex="1" parent="1">
          <mxGeometry x="20" y="252" width="260" height="78" as="geometry" />
        </mxCell>
        <mxCell id="jz2752WbL8ky3ywwrXMl-4" value="Menyusun Jadwal Latihan dan Membentuk Kelompok Berdasarkan Tingkat Kemampuan" style="fillColor=none;strokeColor=none;" vertex="1" parent="1">
          <mxGeometry x="20" y="380" width="260" height="126" as="geometry" />
        </mxCell>
        <mxCell id="jz2752WbL8ky3ywwrXMl-5" value="Membuat Publikasi Kegiatan Melalui Media Sosial dan Platform Kampus" style="fillColor=none;strokeColor=none;" vertex="1" parent="1">
          <mxGeometry x="20" y="556" width="260" height="102" as="geometry" />
        </mxCell>
        <mxCell id="jz2752WbL8ky3ywwrXMl-6" value="Start: Pelaksanaan Latihan" style="rounded=1;arcSize=40;strokeWidth=2" vertex="1" parent="1">
          <mxGeometry x="38" y="708" width="224" height="54" as="geometry" />
        </mxCell>
        <mxCell id="jz2752WbL8ky3ywwrXMl-7" value="Latihan Rutin Dilakukan Setiap Minggu Sesuai Jadwal" style="fillColor=none;strokeColor=none;" vertex="1" parent="1">
          <mxGeometry x="20" y="812" width="260" height="102" as="geometry" />
        </mxCell>
        <mxCell id="jz2752WbL8ky3ywwrXMl-8" value="Peserta Latihan Bersama dengan Drill" style="fillColor=none;strokeColor=none;" vertex="1" parent="1">
          <mxGeometry x="20" y="964" width="260" height="78" as="geometry" />
        </mxCell>
        <mxCell id="jz2752WbL8ky3ywwrXMl-9" value="Pelatihan oleh Pelatih Alumni Berpengalaman" style="fillColor=none;strokeColor=none;" vertex="1" parent="1">
          <mxGeometry x="20" y="1092" width="260" height="78" as="geometry" />
        </mxCell>
        <mxCell id="jz2752WbL8ky3ywwrXMl-10" value="Evaluasi Kemampuan Peserta Setiap Bulan" style="fillColor=none;strokeColor=none;" vertex="1" parent="1">
          <mxGeometry x="20" y="1220" width="260" height="78" as="geometry" />
        </mxCell>
        <mxCell id="jz2752WbL8ky3ywwrXMl-11" value="Simulasi Pertandingan untuk Persiapan Kompetisi" style="fillColor=none;strokeColor=none;" vertex="1" parent="1">
          <mxGeometry x="20" y="1348" width="260" height="78" as="geometry" />
        </mxCell>
        <mxCell id="jz2752WbL8ky3ywwrXMl-12" value="Dokumentasi Kegiatan Rutin untuk Laporan dan Promosi Kegiatan Berikutnya" style="fillColor=none;strokeColor=none;" vertex="1" parent="1">
          <mxGeometry x="20" y="1476" width="260" height="126" as="geometry" />
        </mxCell>
        <mxCell id="jz2752WbL8ky3ywwrXMl-13" value="" style="curved=1;startArrow=none;endArrow=circle;endFill=0;exitX=0.5;exitY=1;entryX=0.5;entryY=0;rounded=0;" edge="1" parent="1" source="jz2752WbL8ky3ywwrXMl-1" target="jz2752WbL8ky3ywwrXMl-2">
          <mxGeometry relative="1" as="geometry">
            <Array as="points" />
          </mxGeometry>
        </mxCell>
        <mxCell id="jz2752WbL8ky3ywwrXMl-14" value="" style="curved=1;startArrow=none;endArrow=circle;endFill=0;exitX=0.5;exitY=1;entryX=0.5;entryY=0;rounded=0;" edge="1" parent="1" source="jz2752WbL8ky3ywwrXMl-2" target="jz2752WbL8ky3ywwrXMl-3">
          <mxGeometry relative="1" as="geometry">
            <Array as="points" />
          </mxGeometry>
        </mxCell>
        <mxCell id="jz2752WbL8ky3ywwrXMl-15" value="" style="curved=1;startArrow=none;endArrow=circle;endFill=0;exitX=0.5;exitY=1;entryX=0.5;entryY=0;rounded=0;" edge="1" parent="1" source="jz2752WbL8ky3ywwrXMl-3" target="jz2752WbL8ky3ywwrXMl-4">
          <mxGeometry relative="1" as="geometry">
            <Array as="points" />
          </mxGeometry>
        </mxCell>
        <mxCell id="jz2752WbL8ky3ywwrXMl-16" value="" style="curved=1;startArrow=none;endArrow=circle;endFill=0;exitX=0.5;exitY=1;entryX=0.5;entryY=0;rounded=0;" edge="1" parent="1" source="jz2752WbL8ky3ywwrXMl-4" target="jz2752WbL8ky3ywwrXMl-5">
          <mxGeometry relative="1" as="geometry">
            <Array as="points" />
          </mxGeometry>
        </mxCell>
        <mxCell id="jz2752WbL8ky3ywwrXMl-17" value="" style="curved=1;startArrow=none;endArrow=block;exitX=0.5;exitY=1;entryX=0.5;entryY=0;rounded=0;" edge="1" parent="1" source="jz2752WbL8ky3ywwrXMl-5" target="jz2752WbL8ky3ywwrXMl-6">
          <mxGeometry relative="1" as="geometry">
            <Array as="points" />
          </mxGeometry>
        </mxCell>
        <mxCell id="jz2752WbL8ky3ywwrXMl-18" value="" style="curved=1;startArrow=none;endArrow=circle;endFill=0;exitX=0.5;exitY=1;entryX=0.5;entryY=0;rounded=0;" edge="1" parent="1" source="jz2752WbL8ky3ywwrXMl-6" target="jz2752WbL8ky3ywwrXMl-7">
          <mxGeometry relative="1" as="geometry">
            <Array as="points" />
          </mxGeometry>
        </mxCell>
        <mxCell id="jz2752WbL8ky3ywwrXMl-19" value="" style="curved=1;startArrow=none;endArrow=circle;endFill=0;exitX=0.5;exitY=1;entryX=0.5;entryY=0;rounded=0;" edge="1" parent="1" source="jz2752WbL8ky3ywwrXMl-7" target="jz2752WbL8ky3ywwrXMl-8">
          <mxGeometry relative="1" as="geometry">
            <Array as="points" />
          </mxGeometry>
        </mxCell>
        <mxCell id="jz2752WbL8ky3ywwrXMl-20" value="" style="curved=1;startArrow=none;endArrow=circle;endFill=0;exitX=0.5;exitY=1;entryX=0.5;entryY=0;rounded=0;" edge="1" parent="1" source="jz2752WbL8ky3ywwrXMl-8" target="jz2752WbL8ky3ywwrXMl-9">
          <mxGeometry relative="1" as="geometry">
            <Array as="points" />
          </mxGeometry>
        </mxCell>
        <mxCell id="jz2752WbL8ky3ywwrXMl-21" value="" style="curved=1;startArrow=none;endArrow=circle;endFill=0;exitX=0.5;exitY=1;entryX=0.5;entryY=0;rounded=0;" edge="1" parent="1" source="jz2752WbL8ky3ywwrXMl-9" target="jz2752WbL8ky3ywwrXMl-10">
          <mxGeometry relative="1" as="geometry">
            <Array as="points" />
          </mxGeometry>
        </mxCell>
        <mxCell id="jz2752WbL8ky3ywwrXMl-22" value="" style="curved=1;startArrow=none;endArrow=circle;endFill=0;exitX=0.5;exitY=1;entryX=0.5;entryY=0;rounded=0;" edge="1" parent="1" source="jz2752WbL8ky3ywwrXMl-10" target="jz2752WbL8ky3ywwrXMl-11">
          <mxGeometry relative="1" as="geometry">
            <Array as="points" />
          </mxGeometry>
        </mxCell>
        <mxCell id="jz2752WbL8ky3ywwrXMl-23" value="" style="curved=1;startArrow=none;endArrow=circle;endFill=0;exitX=0.5;exitY=1;entryX=0.5;entryY=0;rounded=0;" edge="1" parent="1" source="jz2752WbL8ky3ywwrXMl-11" target="jz2752WbL8ky3ywwrXMl-12">
          <mxGeometry relative="1" as="geometry">
            <Array as="points" />
          </mxGeometry>
        </mxCell>
      </root>
    </mxGraphModel>
  </diagram>
</mxfile>
